<svg xmlns="http://www.w3.org/2000/svg" viewBox="0 0 512 512" width="600" height="600">
	<style>
		tspan { white-space:pre }
		.shp0 { fill: #ffffff } 
		.shp1 { fill: #b5b5b5 } 
		.shp2 { fill: #030303 } 
		.shp3 { fill: #9c9c9c } 
		.shp4 { fill: #828282 } 
		.shp5 { fill: #bcbcbc } 
		.shp6 { fill: #464646 } 
		.shp7 { fill: #c6c6c6 } 
		.shp8 { fill: #4c4c4c } 
		.shp9 { fill: #8c8c8c } 
		.shp10 { fill: #070707 } 
		.shp11 { fill: #434343 } 
		.shp12 { fill: #6d6d6d } 
		.shp13 { fill: #868686 } 
		.shp14 { fill: #acacac } 
		.shp15 { fill: #d2d2d2 } 
		.shp16 { fill: #2f2f2f } 
		.shp17 { fill: #7c7c7c } 
		.shp18 { fill: #757575 } 
		.shp19 { fill: #a2a2a2 } 
		.shp20 { fill: #666666 } 
		.shp21 { fill: #3c3c3c } 
		.shp22 { fill: #626262 } 
		.shp23 { fill: #949494 } 
		.shp24 { fill: #a6a6a6 } 
		.shp25 { fill: #5d5d5d } 
		.shp26 { fill: #535353 } 
		.shp27 { fill: #c2c2c2 } 
		.shp28 { fill: #101010 } 
		.shp29 { fill: #dadada } 
		.shp30 { fill: #cccccc } 
		.shp31 { fill: #252525 } 
	</style>
	<path id="Layer" class="shp0" d="M0 0L0 427L1 427C9.05 413.07 20.56 415 32 406.56C63.91 383 100.61 362.48 137 347C136.12 341.29 132.18 339.85 128.92 335.64C121.4 325.96 113.7 316.4 111.12 304C109.22 294.88 113.68 287.45 112.7 279C111.89 272.02 107.53 265.81 106.57 259C105.59 252.03 103.92 243.01 105.28 236C106.02 232.13 108.52 229 108.89 225C110.09 212.32 107.7 201.73 111.78 189C115.31 178.04 123.89 168.83 131.26 160.28C156.17 131.42 187.46 115.68 226 114.04C235.05 113.65 242.42 117.5 251 119.47C258.63 121.22 268.36 121.06 275.41 124.44C281.69 127.45 283.83 134.54 291 136C298.06 124.8 303.01 114.5 315.09 107.25C321.92 103.16 331.42 104.37 339 102.53C346.51 100.71 353.13 97.63 361 97.09C384.57 95.47 419.08 106.12 437.7 120.52C445.4 126.48 450.86 134.74 457.16 142C464.36 150.29 473.79 159.64 477.77 170C483.26 184.3 481.5 196.34 482.02 211C482.41 222.1 484.4 231.54 483.62 243C482.74 255.93 475.48 262.4 480 276L512 273L512 0L0 0Z" />
	<path id="Layer" class="shp1" d="M5 27L5 61L6 61L5 27Z" />
	<path id="Layer" class="shp2" d="M6 27L6 61L11 61L11 27L6 27Z" />
	<path id="Layer" class="shp3" d="M11 27L11 61L12 61L11 27Z" />
	<path id="Layer" class="shp4" d="M30 27L30 61L31 61L31 28L36 28L30 27Z" />
	<path id="Layer" class="shp5" d="M36 27L36 40L37 40L36 27Z" />
	<path id="Layer" class="shp6" d="M46 29L54 29C51.77 26.45 48.23 26.45 46 29Z" />
	<path id="Layer" class="shp7" d="M60 27L60 61L61 61L60 27Z" />
	<path id="Layer" class="shp8" d="M61 27L61 28L67 31C67.87 27.14 64.06 27.1 61 27Z" />
	<path id="Layer" class="shp9" d="M77 27L77 47L78 47L78 28L83 28L83 61L84 61L84 27L77 27Z" />
	<path id="Layer" fill-rule="evenodd" class="shp10" d="M108.83 60.11C90.23 68.01 83.56 33.91 99.09 27.74C116.86 20.67 124.11 53.62 108.83 60.11ZM131 53L133 53L138 28L145 28L150 53L151 53C151.28 46.42 152.63 29.23 160 28L154 61L147 61L142 35L141 35L136 61L129 61L122 27C130.85 27.71 130.94 45.77 131 53Z" />
	<path id="Layer" class="shp8" d="M137 27L137 31L138 31L138 28L145 28L137 27Z" />
	<path id="Layer" class="shp9" d="M145 27L146 36L147 36L145 27Z" />
	<path id="Layer" class="shp8" d="M155 29L160 28L159 35L160 35L161 27L155 29Z" />
	<path id="Layer" class="shp11" d="M176 27L176 28L199 28L176 27Z" />
	<path id="Layer" class="shp3" d="M199 27L199 34L200 34L199 27Z" />
	<path id="Layer" class="shp12" d="M205 27L205 28L210 28L210 41L211 41L211 27L205 27Z" />
	<path id="Layer" class="shp1" d="M221 27L221 40L211 40L211 41L222 41L221 27Z" />
	<path id="Layer" class="shp4" d="M222 27L222 28L227 28L227 61L228 61L228 27L222 27Z" />
	<path id="Layer" class="shp11" d="M242 27L242 31L243 31L243 28L249 30C250.46 26.13 244.57 27 242 27ZM259 27L259 34L268 34L268 33L260 33L260 28L282 28L282 33L274 33L274 34L283 34L283 27L259 27Z" />
	<path id="Layer" class="shp3" d="M300 27L300 61L301 61L300 27Z" />
	<path id="Layer" class="shp6" d="M301 27L301 28L319 28L319 33L306 33L306 34L320 34L320 27L301 27Z" />
	<path id="Layer" class="shp13" d="M326 27L326 61L327 61L326 27Z" />
	<path id="Layer" class="shp11" d="M327 27L327 28L346 28L346 33L332 33L332 34L347 34L347 27L327 27Z" />
	<path id="Layer" class="shp14" d="M354 27L354 61L355 61L354 27Z" />
	<path id="Layer" class="shp11" d="M355 27L355 28L374 28L374 33L360 33L360 34L375 34L375 27L355 27Z" />
	<path id="Layer" class="shp1" d="M382 27L382 61L383 61L382 27Z" />
	<path id="Layer" class="shp2" d="M383 27L383 61L403 61L403 55C399.36 55 393.49 56.09 390.32 53.97C385.09 50.49 388 32.72 388 27L383 27Z" />
	<path id="Layer" class="shp9" d="M388 27L388 54L389 54L388 27Z" />
	<path id="Layer" class="shp15" d="M420 27L420 61L421 61L420 27Z" />
	<path id="Layer" class="shp16" d="M421 27L421 61L422 61L422 28L438 28L421 27Z" />
	<path id="Layer" class="shp17" d="M451 27L451 61L452 61L451 27Z" />
	<path id="Layer" class="shp11" d="M452 27L452 28L469 28L452 27Z" />
	<path id="Layer" class="shp6" d="M488 28L488 29L499 28L488 28Z" />
	<path id="Layer" class="shp2" d="M31 28L31 61L36 61L39 45L42 45C43.36 52.16 46.98 60.73 55 61L46.07 40.09L53 28C45.39 28.24 40.78 33.81 37 40L36 40L36 28L31 28ZM61 28L61 61L66 61L66 41C72.21 47.15 72.88 60.66 83 61L83 28L78 28L78 47C72.46 40.24 71.24 28.76 61 28Z" />
	<path id="Layer" class="shp18" d="M108 28L108 29L111 30L108 28Z" />
	<path id="Layer" class="shp2" d="M176 28L176 34L185 34L185 61L190 61L190 34L199 34L199 28L176 28Z" />
	<path id="Layer" class="shp16" d="M205 28L205 61L210 59L206 60L205 28Z" />
	<path id="Layer" class="shp2" d="M206 28L206 60L211.03 49.32L222 47L222 61L227 61L227 28L222 28L222 41L210 41L210 28L206 28Z" />
	<path id="Layer" class="shp10" d="M243 28L232 61C237.68 60.69 239.23 58.49 240 53L252 53L254 61L260 61C258.08 51.74 253.9 28.36 243 28Z" />
	<path id="Layer" class="shp2" d="M260 28L260 33L268 33L268 61L273 61C273 51.09 268.52 33.16 282 33L282 28L260 28ZM301 28L301 61L306 61L306 46L317 46L317 40L306 40L306 33L319 33L319 28L301 28Z" />
	<path id="Layer" class="shp15" d="M320 28L320 34L307 34L307 35L321 36L320 28Z" />
	<path id="Layer" class="shp2" d="M327 28L327 61L348 61L348 55L332 55L332 47L345 47L345 41L332 41L332 33L346 33L346 28L327 28ZM355 28L355 61L376 61L376 55L360 55L360 47L373 47L373 41L360 41L360 33L374 33L374 28L355 28ZM422 28L422 61C429.44 61 443.3 63.44 444.68 52.87C445.15 49.27 442.15 46.53 442.07 43C441.97 38.62 444.83 33.1 440.68 29.6C436.61 26.17 427.03 28 422 28ZM452 28L452 61L457 61L457 46C463.99 47.13 468.17 54.66 470 61L477 61L469 45C474.34 42.03 478.27 32.46 470.87 29.01C465.64 26.57 457.65 28 452 28Z" />
	<path id="Layer" class="shp9" d="M470.67 28.33L471.33 28.67L470.67 28.33Z" />
	<path id="Layer" class="shp2" d="M490 28.57C474.01 33.18 480.11 66.26 498 60.44C513.88 55.27 509.27 23.02 490 28.57Z" />
	<path id="Layer" class="shp19" d="M499.67 28.33L500.33 28.67L499.67 28.33Z" />
	<path id="Layer" class="shp20" d="M52.33 29.67L52.67 30.33L52.33 29.67Z" />
	<path id="Layer" class="shp3" d="M128 29L128 35L129 35L128 29Z" />
	<path id="Layer" class="shp21" d="M154 29L153 41L154 41L154 29Z" />
	<path id="Layer" class="shp18" d="M94 30L94 32L96 30L94 30Z" />
	<path id="Layer" class="shp22" d="M136 31L136 36L137 36L136 31Z" />
	<path id="Layer" class="shp23" d="M474.33 31.67L474.67 32.33L474.33 31.67Z" />
	<path id="Layer" class="shp9" d="M41 33L41 36L42 36L41 33Z" />
	<path id="Layer" class="shp20" d="M443 33L443 40L444 40L443 33Z" />
	<path id="Layer" class="shp0" d="M100.13 35.03C92.05 39.62 96.81 58.69 106.87 52.97C114.94 48.38 110.23 29.3 100.13 35.03Z" />
	<path id="Layer" class="shp24" d="M184 34L184 61L185 61L184 34Z" />
	<path id="Layer" class="shp23" d="M190 34L190 61L191 61L190 34Z" />
	<path id="Layer" class="shp17" d="M245 34L245 37L247 37L247 34L245 34Z" />
	<path id="Layer" class="shp14" d="M252 34L252 38L253 38L252 34Z" />
	<path id="Layer" class="shp15" d="M259 34L259 35L267 35L267 61L268 61L268 34L259 34Z" />
	<path id="Layer" class="shp25" d="M273 34L273 61L274 61L273 34Z" />
	<path id="Layer" class="shp3" d="M306 34L306 40L317 40L317 46L318 46L318 39L307 39L306 34Z" />
	<path id="Layer" class="shp15" d="M332 34L332 41L346 41L346 40L333 40L333 35L347 35L332 34Z" />
	<path id="Layer" class="shp1" d="M360 34L360 41L374 41L374 40L361 40L361 35L375 35L360 34Z" />
	<path id="Layer" fill-rule="evenodd" class="shp0" d="M427 34L427 40L438 40C437.47 33.22 432.66 34 427 34ZM457 34L457 39L469 39C467.95 32.73 462.18 34 457 34ZM491.11 35.03C483.07 39.5 487.58 58.37 497.66 53.06C506.05 48.64 501.31 29.36 491.11 35.03Z" />
	<path id="Layer" class="shp20" d="M129 35L129 41L130 41L129 35Z" />
	<path id="Layer" class="shp24" d="M141 35L140 41L141 41L141 35Z" />
	<path id="Layer" class="shp9" d="M469 35L469 38L470 38L469 35Z" />
	<path id="Layer" class="shp1" d="M481 35L480 50L481 50L481 35Z" />
	<path id="Layer" class="shp26" d="M506 35L506 39L507 39L506 35Z" />
	<path id="Layer" class="shp20" d="M147 36L147 42L148 42L147 36Z" />
	<path id="Layer" class="shp9" d="M110 37L110 51L111 51C112.13 46.27 112.85 41.17 110 37Z" />
	<path id="Layer" class="shp24" d="M238 37L238 42L239 42L238 37Z" />
	<path id="Layer" class="shp23" d="M244 37L244 42L245 42L244 37Z" />
	<path id="Layer" class="shp0" d="M245 37L243 46L249 46L248 37L245 37Z" />
	<path id="Layer" class="shp18" d="M487.33 37.67L487.67 38.33L487.33 37.67ZM73.33 39.67L73.67 40.33L73.33 39.67Z" />
	<path id="Layer" class="shp8" d="M90 39L90 50L91 50L90 39Z" />
	<path id="Layer" class="shp7" d="M117 39L117 50L118 50L117 39Z" />
	<path id="Layer" class="shp19" d="M457 39L457 40L468 40L457 39Z" />
	<path id="Layer" class="shp26" d="M507 39L507 50L508 50L507 39ZM95 40L96 51L97 51L95 40Z" />
	<path id="Layer" class="shp25" d="M139 40L139 45L140 45L139 40Z" />
	<path id="Layer" class="shp5" d="M427 40L427 41L437 41L427 40Z" />
	<path id="Layer" class="shp19" d="M486 40L487 51L488 51L486 40Z" />
	<path id="Layer" class="shp6" d="M502 40L501 50L502 50L502 40Z" />
	<path id="Layer" class="shp17" d="M66 41L66 61L67 61L68 41L66 41Z" />
	<path id="Layer" class="shp4" d="M74.33 41.67L74.67 42.33L74.33 41.67Z" />
	<path id="Layer" class="shp20" d="M130 41L130 46L131 46L130 41Z" />
	<path id="Layer" class="shp17" d="M157 41L156 52L157 52L157 41ZM345 41L345 47L332 47L332 48L346 48L345 41Z" />
	<path id="Layer" class="shp11" d="M373 41L373 47L374 47L373 41Z" />
	<path id="Layer" class="shp25" d="M148 42L148 47L149 47L148 42Z" />
	<path id="Layer" class="shp3" d="M237 42L237 45L238 45L237 42Z" />
	<path id="Layer" class="shp17" d="M254 42L254 45L255 45L254 42Z" />
	<path id="Layer" class="shp18" d="M75.33 43.67L75.67 44.33L75.33 43.67Z" />
	<path id="Layer" class="shp4" d="M47 44L48 49L49 49L47 44Z" />
	<path id="Layer" class="shp9" d="M39 48L40 48L42 47C40.58 44.48 39.52 45.54 39 48Z" />
	<path id="Layer" class="shp18" d="M138 45L138 50L139 50L138 45Z" />
	<path id="Layer" class="shp8" d="M144 45L144 51L145 51L144 45Z" />
	<path id="Layer" class="shp17" d="M236 45L236 49L237 49L236 45Z" />
	<path id="Layer" class="shp20" d="M242 45C244.23 47.55 247.77 47.55 250 45L242 45Z" />
	<path id="Layer" class="shp26" d="M131 46L131 53L132 53L131 46Z" />
	<path id="Layer" class="shp1" d="M306 46L306 61L307 61L307 47L317 47L306 46Z" />
	<path id="Layer" class="shp17" d="M443 46L443 49L444 49L443 46Z" />
	<path id="Layer" class="shp4" d="M211 47L211 48L222 48L211 47ZM360 47L360 54L361 54L361 48L374 48L360 47ZM426 47L426 54L427 54L427 48L437 48L426 47Z" />
	<path id="Layer" class="shp12" d="M210 48L210 61L211 61L210 48Z" />
	<path id="Layer" class="shp27" d="M221 48L221 61L222 61L221 48Z" />
	<path id="Layer" class="shp0" d="M427 48L427 54C440.19 54 440.17 48 427 48Z" />
	<path id="Layer" class="shp27" d="M36 50L36 61L37 61L36 50Z" />
	<path id="Layer" class="shp23" d="M137 50L137 55L138 55L137 50Z" />
	<path id="Layer" class="shp26" d="M127 51L127 56L128 56L127 51Z" />
	<path id="Layer" class="shp8" d="M145 51L145 56L146 56L145 51Z" />
	<path id="Layer" class="shp9" d="M155 52L155 56L156 56L155 52Z" />
	<path id="Layer" class="shp22" d="M466 52L468 55L466 52Z" />
	<path id="Layer" class="shp17" d="M92.33 53.67L92.67 54.33L92.33 53.67Z" />
	<path id="Layer" class="shp13" d="M505.33 53.67L505.67 54.33L505.33 53.67Z" />
	<path id="Layer" class="shp12" d="M74.33 54.67L74.67 55.33L74.33 54.67Z" />
	<path id="Layer" class="shp26" d="M100 54L100 55L107 55L100 54ZM332 54L332 55L348 55L332 54ZM360 54L360 55L376 55L360 54ZM389 54L389 55L403 55L389 54ZM427 54L427 55L438 55L427 54Z" />
	<path id="Layer" class="shp8" d="M491 54L491 55L498 55L491 54Z" />
	<path id="Layer" class="shp4" d="M443 55L443 58L444 58L443 55ZM75 56L75 59L76 59L75 56Z" />
	<path id="Layer" class="shp14" d="M94 56L96 59L94 56Z" />
	<path id="Layer" class="shp18" d="M128 56L128 61L129 61L128 56Z" />
	<path id="Layer" class="shp17" d="M146 56L146 61L147 61L146 56Z" />
	<path id="Layer" class="shp3" d="M154 56L154 61L155 61L154 56Z" />
	<path id="Layer" class="shp22" d="M253 56L253 60L254 60L253 56Z" />
	<path id="Layer" class="shp23" d="M468.33 56.67L468.67 57.33L468.33 56.67Z" />
	<path id="Layer" class="shp3" d="M469.33 58.67L469.67 59.33L469.33 58.67Z" />
	<path id="Layer" class="shp13" d="M476.33 58.67L476.67 59.33L476.33 58.67Z" />
	<path id="Layer" class="shp1" d="M500 60L503 58L500 60Z" />
	<path id="Layer" class="shp9" d="M48.33 59.67L48.67 60.33L48.33 59.67Z" />
	<path id="Layer" class="shp18" d="M357 97L357 98L374 98L357 97Z" />
	<path id="Layer" class="shp1" d="M348 99L348 100L352 99L348 99Z" />
	<path id="Layer" class="shp28" d="M291 136C284.81 133.88 281.9 127.77 276 125.08C269.1 121.92 261.24 122.11 254 120.55C244.31 118.45 235.12 114.08 225 114.08C218.78 114.08 213.04 116.69 207 117.67C169.38 123.82 134.24 143.04 116.3 179C109 193.64 109.96 208.4 108.88 224C108.31 232.24 105.67 239.44 106.04 248C106.52 258.88 111.61 267.61 112.53 278C113.71 291.13 109.86 302.64 115.03 315.96C118.01 323.63 124.78 330.4 129.9 336.72C131.79 339.05 135.66 341.63 135.81 344.87C135.91 346.88 133.64 349.1 133 351C113.54 352.7 95.51 367.13 79.91 377.46C64.64 387.56 48.34 396.17 32.96 406.12C20.82 413.98 7.32 412.04 0.88 427.42C-2.41 435.31 -1.4 453.59 3.21 460.71C5.51 464.27 12.68 468.03 13.37 472.13C14.53 478.99 0.54 487.92 0 496L17 475C26.67 481.87 32.03 495.97 45 498L31 512L35 512C44.66 493.35 57.69 506.95 71 510C65.73 500.71 51.73 498.85 43 494.1C32.58 488.43 28.03 479.04 19.82 471.25C14.59 466.29 6.28 461.74 3.42 454.83C-1.94 441.84 1.44 426.22 12.84 417.76C18.4 413.64 26.04 414.11 32 410.24C67.72 387.02 102.96 363.68 143 349C152.28 373.51 171.54 386.91 198 389L198 385C183.37 387.33 162.33 376.68 153.85 364.78C150.46 360.01 149.44 353.59 145.73 348.79C132.76 331.97 117.11 320.02 113.26 297.91C112.16 291.56 116.32 286.27 115.77 280C115.17 273.04 110.41 266.87 109.56 260C108 247.4 111.24 237.19 111.86 225C112.19 218.4 110.01 211.76 111.26 205.09C120.91 153.92 174.41 119.43 224 117.04C232.55 116.63 238.96 119.71 247 121.65C264.67 125.9 278.45 127.59 291.44 141.57C294.06 144.38 294.06 148.75 295.93 152C300.89 160.61 305.23 168.05 309.6 177C316.56 191.23 324.34 208.62 323.62 225C323.26 233.29 322.68 245.07 320.15 253C316.45 264.58 310.41 275.36 311.21 288C312.29 304.96 319.23 320.16 326.23 335C331.25 345.64 335.79 356.67 347.01 362.7C357.53 368.34 369.5 367 381 367L368 382C375.27 380.88 378.53 374.23 384.04 370.06C389.29 366.08 397.89 363.51 404.17 361.29C422.7 354.72 441.12 357.6 460 358L460 355L434 354L434 352C443.44 350.41 447.72 334.99 452.92 328C460 318.5 468.98 310.46 474.74 299.99C477.76 294.5 479.24 283.64 484.26 279.96C491.42 274.71 503.67 277 512 277L512 275L479 277C478.8 272.63 476.17 268.25 476.58 264C477.6 253.68 483.17 244.82 483.91 234C484.49 225.54 481.49 218 481.48 210C481.45 194.03 483.4 178.8 475.19 164C449.28 117.25 393.99 89.69 342 101.96C333.96 103.86 323.94 103.33 316.43 106.86C305.38 112.04 295.94 125.21 291 136Z" />
	<path id="Layer" class="shp4" d="M376 99L376 100L381 100L376 99Z" />
	<path id="Layer" class="shp14" d="M341 101L341 102L347 101L341 101Z" />
	<path id="Layer" class="shp17" d="M357 100L357 101L371 101L357 100Z" />
	<path id="Layer" class="shp19" d="M381 100L381 101L388 101L381 100Z" />
	<path id="Layer" class="shp18" d="M352 101L352 102L357 102L352 101Z" />
	<path id="Layer" class="shp0" d="M357 101.42C348.11 102.64 338.74 104.95 330 107.04C316.64 110.23 293.41 121.95 294.6 139C295.31 149.22 303.33 153.85 307.55 162.01C315.57 177.51 324.15 198.42 325.89 216C328.92 246.44 310.38 272.24 317.12 302C319.44 312.24 327.82 319.79 334.17 327.59C344.54 340.34 354.38 365.79 375 363.66C380.51 363.09 385.56 360.16 391 359.26C403.97 357.11 422.76 359.41 433.58 350.26C438 346.53 437.77 338.9 441.51 334.43C449.53 324.82 456.85 315.34 464.43 305.29C467.42 301.31 471.81 297.84 473.44 293C476.77 283.11 472.15 273.65 473.7 264C474.69 257.89 478.63 252.81 479.64 246.96C481.89 234.08 479.04 222.6 478.12 210C477.2 197.5 479.17 184.34 475.2 172.04C472.36 163.24 464.38 154.8 458.69 147.72C435.59 118.98 395.71 96.14 357 101.42Z" />
	<path id="Layer" class="shp14" d="M388 101L388 102L392 102L388 101Z" />
	<path id="Layer" class="shp19" d="M392 102L392 103L396 103L392 102Z" />
	<path id="Layer" class="shp21" d="M401 104L401 105L410 107L410 106L401 104Z" />
	<path id="Layer" class="shp17" d="M317 105L317 106L326 106L317 105Z" />
	<path id="Layer" class="shp25" d="M396 106L396 107L400 107L396 106Z" />
	<path id="Layer" class="shp20" d="M314.67 107.33L315.33 107.67L314.67 107.33Z" />
	<path id="Layer" class="shp27" d="M398 107L398 108L410 110L398 107Z" />
	<path id="Layer" class="shp17" d="M411.67 107.33L412.33 107.67L411.67 107.33Z" />
	<path id="Layer" class="shp4" d="M312 108L312 110L314 108L312 108Z" />
	<path id="Layer" class="shp6" d="M318 108L318 109L326 109L318 108Z" />
	<path id="Layer" class="shp1" d="M317 109L317 110L323 110L317 109Z" />
	<path id="Layer" class="shp24" d="M416 109L416 110L422 112L422 111L416 109Z" />
	<path id="Layer" class="shp23" d="M310 110L310 112L312 110L310 110Z" />
	<path id="Layer" class="shp14" d="M314 113L317 110L314 113Z" />
	<path id="Layer" class="shp8" d="M309 112L307 116L309 112Z" />
	<path id="Layer" class="shp3" d="M422 112L422 113L426 114L426 113L422 112Z" />
	<path id="Layer" class="shp24" d="M229 114L229 115L235 115L229 114Z" />
	<path id="Layer" class="shp19" d="M235 115L235 116L240 116L235 115Z" />
	<path id="Layer" class="shp20" d="M203 117L203 118L209 118L203 117Z" />
	<path id="Layer" class="shp14" d="M216 118L216 119L234 118L216 118Z" />
	<path id="Layer" class="shp20" d="M243 117L243 118L248 119L248 118L243 117Z" />
	<path id="Layer" class="shp9" d="M424.67 117.33L425.33 117.67L424.67 117.33Z" />
	<path id="Layer" class="shp23" d="M432 117L435 119L432 117Z" />
	<path id="Layer" class="shp0" d="M112 250C109.3 261.34 116.17 269.17 116.57 279.96C116.97 290.88 112.88 299.52 116.31 311C120.87 326.28 136.63 338.23 146.75 349.75C150.63 354.16 150.34 361.07 153.85 365.59C156.56 369.08 161.32 370.44 164.79 372.92C175.65 380.69 184.9 385 199 385L198 390C179.82 386.61 166.26 379.91 152.06 367.97C147.13 363.83 147.87 349.25 139.09 350.76C128.62 352.57 119.32 359.08 110 363.63C83.56 376.52 58.31 392.61 34 409.83C23.25 417.43 8.6 414.23 3.13 429C-4.24 448.94 8.12 460.32 20.67 472.92C25.59 477.86 28.48 484.21 34 488.66C42.89 495.82 53.93 498.05 63.91 502.95C68.77 505.34 72.75 509.25 78 510.94C87.55 514.01 100.05 512 110 512L177 512L318 512C340.68 512 365.56 514.92 388 511.79C400.05 510.11 412.63 506.16 423 499.84C428.23 496.66 433.49 488.76 424 488L427 493L427 495C422 495.43 420.73 492.57 420 488C389.53 488 361.69 497.5 331 493.42C323 492.36 302.63 487.3 305.98 474.99C311.49 454.73 351.42 466.2 351.77 441.02C351.91 430.98 331.9 438.93 327 441L328 446L322 441C310.81 443.13 299.74 448.41 289 452.2C279.62 455.51 269.77 457.09 261 462.09C253.43 466.4 243.47 481.27 235 480.81C203.6 479.12 181.9 456.55 156.91 440.45C140.07 429.6 116.89 423.85 97 423L97 419C103.5 419.82 114.9 424.26 121 422.36C125.94 420.82 129.51 415.77 134 413.27C141.63 409.02 155.33 404.76 164 404.09C176.2 403.15 195.8 409.99 200.63 394C204.1 382.5 191.2 364.38 185.75 353.83C184.33 351.1 181.2 341.16 184.59 338.92C188.56 336.3 190.99 354.38 192.03 357C195.39 365.43 203.91 374.44 205.65 383.04C207.02 389.86 202.84 398.12 200 404L212 406L212 408C186.09 414.17 146.51 398 127 423L127 424C136.3 429.77 147.42 430.54 157.01 436.87C179.49 451.71 206.89 481.87 236.91 476.85C243.95 475.68 249.33 464.62 256.17 461.08C277.43 450.1 306.32 439.8 330 436.71C336.32 435.89 342.31 430.71 348.83 432.48C361.25 435.85 354.02 450.42 347.56 455.78C338.27 463.47 324.94 462.36 315.1 468.53C307.8 473.12 308.78 480.33 314.87 485.43C322.15 491.52 336.17 489 345 489C352.89 489 361.26 491.65 369 490.81C387.1 488.86 405.48 481.29 424 484.21C430.31 485.21 435.07 491.01 430.49 496.82C425.63 502.96 413.74 510.3 406 511L406 512L498 512L506.18 485L507.09 458L511.87 432.91L512 381L512 278L482 280L473.5 302.91L468 313C462.53 314.56 461.27 318.86 457.9 323C450.9 331.59 440.81 342.08 438 353C444.69 353 457.37 351.41 461 358C439.6 357.56 418.76 356.4 398.09 363.46C393.44 365.05 386.9 366.91 383.14 370.06C377.91 374.45 375.09 382.74 367 382L367 380L380 368C368.06 368 355.82 368.28 345.21 361.66C335.68 355.7 330.24 343.62 325.65 334C318.82 319.68 310.78 303.56 310.3 287C309.96 275.21 316.45 265.81 319.49 255C321.73 247.06 322.77 234.32 322.95 226C323.47 200.75 310.6 172.11 296.54 152C290.64 143.56 286.12 134.63 276.98 128.74C270.31 124.44 260.49 125.06 253 123.66C248.2 122.76 243.8 120.23 239 119.22C212.98 113.77 174.89 123.67 154.17 140.09C145.65 146.85 138.09 157.32 131.62 166C123.77 176.55 116.92 184 113.77 197C110.7 209.69 111.31 224.12 110.1 237C109.74 240.93 108.87 247.27 112 250Z" />
	<path id="Layer" class="shp17" d="M234 118L234 119L240 119L234 118Z" />
	<path id="Layer" class="shp26" d="M296 126L303 119C298.57 118.1 296.97 122.29 296 126Z" />
	<path id="Layer" class="shp17" d="M426 118L426 119L430 120L430 119L426 118Z" />
	<path id="Layer" class="shp24" d="M190 119L190 120L195 120L190 119Z" />
	<path id="Layer" class="shp14" d="M435 119L435 120L439 121L439 120L435 119Z" />
	<path id="Layer" class="shp20" d="M186 121L186 122L192 121L186 121Z" />
	<path id="Layer" class="shp9" d="M204 120L204 121L208 121L204 120Z" />
	<path id="Layer" class="shp23" d="M252 120L252 121L259 121L252 120Z" />
	<path id="Layer" class="shp17" d="M302 121L302 122L306 121L302 121Z" />
	<path id="Layer" class="shp25" d="M196 121L196 122L200 122L196 121Z" />
	<path id="Layer" class="shp9" d="M248 122L248 123L251 123L248 122Z" />
	<path id="Layer" class="shp12" d="M251 123L251 124L259 124L251 123Z" />
	<path id="Layer" class="shp24" d="M270 123L270 124L275 124L270 123Z" />
	<path id="Layer" class="shp8" d="M299 123L299 126L300 126L301 123L299 123Z" />
	<path id="Layer" class="shp14" d="M277 125L280 127L277 125Z" />
	<path id="Layer" class="shp23" d="M180.67 126.33L181.33 126.67L180.67 126.33Z" />
	<path id="Layer" class="shp17" d="M269 126L269 127L274 127L269 126Z" />
	<path id="Layer" class="shp23" d="M295 126L294 130L295 130L295 126Z" />
	<path id="Layer" class="shp9" d="M178.67 127.33L179.33 127.67L178.67 127.33Z" />
	<path id="Layer" class="shp25" d="M298 127L297 130L298 127Z" />
	<path id="Layer" class="shp9" d="M173 129L173 130L178 129L173 129Z" />
	<path id="Layer" class="shp3" d="M449.33 136.67L449.67 137.33L449.33 136.67Z" />
	<path id="Layer" class="shp12" d="M288.67 139.33L289.33 139.67L288.67 139.33Z" />
	<path id="Layer" class="shp18" d="M294 139L294 142L295 142L294 139Z" />
	<path id="Layer" class="shp3" d="M292 141L293 147L294 147L292 141Z" />
	<path id="Layer" class="shp15" d="M141 155L150 145L141 155Z" />
	<path id="Layer" class="shp4" d="M458.33 147.67L458.67 148.33L458.33 147.67Z" />
	<path id="Layer" class="shp1" d="M463 154L467 159L463 154Z" />
	<path id="Layer" class="shp4" d="M306.33 159.67L306.67 160.33L306.33 159.67Z" />
	<path id="Layer" class="shp19" d="M134 160L133 164L134 164L136 160L134 160Z" />
	<path id="Layer" class="shp13" d="M307.33 161.67L307.67 162.33L307.33 161.67Z" />
	<path id="Layer" class="shp23" d="M304.33 162.67L304.67 163.33L304.33 162.67ZM308 163L308 166L309 166L308 163Z" />
	<path id="Layer" class="shp29" d="M131 164L118 184L119 184L133 164L131 164Z" />
	<path id="Layer" class="shp14" d="M305 164L305 168L306 168L305 164Z" />
	<path id="Layer" class="shp21" d="M360 164C364.15 170.41 382.71 168.31 390 169.88C402.5 172.57 412.07 178.69 424 182.43C432.19 184.99 442.29 184.48 450 187.93C454.71 190.05 457.34 194.78 462 197C456.81 183.91 441.77 184.43 430 181.53C421.45 179.41 415.08 174.09 407 171.34C392.13 166.28 375.46 165.96 360 164Z" />
	<path id="Layer" class="shp1" d="M471 164L472 168L473 168L471 164Z" />
	<path id="Layer" class="shp5" d="M370 165L370 166L389 167L370 165Z" />
	<path id="Layer" class="shp3" d="M476.33 166.67L476.67 167.33L476.33 166.67Z" />
	<path id="Layer" class="shp1" d="M364 167L364 168L370 168L364 167Z" />
	<path id="Layer" class="shp14" d="M307 169L307 173L308 173L307 169ZM383 169L383 170L389 170L383 169Z" />
	<path id="Layer" class="shp3" d="M403 170L403 171L406 171L403 170Z" />
	<path id="Layer" class="shp14" d="M395 171L395 172L400 172L395 171ZM476 176L476 181L477 181L476 176Z" />
	<path id="Layer" class="shp11" d="M340 179C345.91 188.15 368.84 183.44 378 183.04C395.33 182.28 402.71 189.12 418 194.58C429.34 198.63 441.55 200.94 453 205C449.68 196.66 430.86 195.81 423 193.61C413.66 191 406.79 183.6 397 181.52C385.64 179.09 373.42 182.04 362 182C354.45 181.97 347.49 179.16 340 179Z" />
	<path id="Layer" class="shp4" d="M115.33 180.67L115.67 181.33L115.33 180.67Z" />
	<path id="Layer" class="shp30" d="M372 180L372 181L394 181L372 180Z" />
	<path id="Layer" class="shp27" d="M354 181L354 182L371 182L354 181Z" />
	<path id="Layer" class="shp15" d="M477 181L478 200L479 200L477 181Z" />
	<path id="Layer" class="shp1" d="M373 183L373 184L397 184L373 183Z" />
	<path id="Layer" class="shp14" d="M438 183L438 184L443 184L438 183Z" />
	<path id="Layer" class="shp9" d="M113.33 184.67L113.67 185.33L113.33 184.67Z" />
	<path id="Layer" class="shp27" d="M354 184L354 185L370 185L354 184Z" />
	<path id="Layer" class="shp14" d="M112 186L111 192L112 192L112 186Z" />
	<path id="Layer" class="shp12" d="M479 186L479 204L480 204L479 186Z" />
	<path id="Layer" class="shp4" d="M482 186L482 200L483 200L482 186Z" />
	<path id="Layer" class="shp12" d="M110 194L108 214L109 214L110 194Z" />
	<path id="Layer" class="shp7" d="M426 194L426 195L435 196L426 194Z" />
	<path id="Layer" class="shp26" d="M317 195L318 200L319 200L317 195Z" />
	<path id="Layer" class="shp19" d="M462 195L460 197L460 198C462.25 197.53 463.12 197.14 462 195Z" />
	<path id="Layer" class="shp3" d="M357 196L357 197L376 197L357 196Z" />
	<path id="Layer" class="shp26" d="M350 200L396 203C390.76 194.91 369.57 197 361 197C356.85 197 352.58 196.34 350 200Z" />
	<path id="Layer" class="shp24" d="M319 201L320 209L321 209L319 201Z" />
	<path id="Layer" class="shp9" d="M396 201L395 204L396 201Z" />
	<path id="Layer" class="shp18" d="M111 202L111 221L112 221L111 202Z" />
	<path id="Layer" class="shp23" d="M478 204L478 208L479 208L478 204Z" />
	<path id="Layer" class="shp8" d="M478 208L478 214L479 214L478 208Z" />
	<path id="Layer" class="shp23" d="M481 208L481 213L482 213L481 208Z" />
	<path id="Layer" class="shp17" d="M322 212L322 221L323 221L322 212ZM325 212L325 222L326 222L325 212Z" />
	<path id="Layer" class="shp19" d="M394 215L395 215L397 213C394.86 211.88 394.47 212.75 394 215Z" />
	<path id="Layer" class="shp21" d="M395 213L399 223L400 223C399.79 218.49 399.15 215.23 395 213Z" />
	<path id="Layer" class="shp20" d="M441 213L441 214L446 214L441 213Z" />
	<path id="Layer" class="shp7" d="M434 214C434.85 217.99 438.49 217 442 217L442 216C438.29 216 435.28 216.89 436 214L434 214Z" />
	<path id="Layer" class="shp21" d="M435 215L435 216L454.91 217.99L467 229C461.43 215.83 448.44 211.03 435 215Z" />
	<path id="Layer" class="shp19" d="M446 216L446 217L451 217L446 216Z" />
	<path id="Layer" class="shp24" d="M451 217L451 218L456 218L451 217Z" />
	<path id="Layer" class="shp19" d="M353 218L353 219L359 219L353 218Z" />
	<path id="Layer" class="shp23" d="M400 218L400 223L399 223L399 220L398 220L398 224L401 224L400 218Z" />
	<path id="Layer" class="shp2" d="M353 219C348.62 240.34 370.7 242.95 388 243C391.55 226.8 365.95 219.11 353 219Z" />
	<path id="Layer" class="shp18" d="M481 220L479 242L480 242L481 220Z" />
	<path id="Layer" class="shp9" d="M484 220L484 234L485 234L484 220Z" />
	<path id="Layer" class="shp12" d="M112 222L112 228L113 228L112 222ZM323 222L323 228L324 228L323 222Z" />
	<path id="Layer" class="shp0" d="M358 235L362 235L366 224C355.36 220.86 354.5 226.93 358 235Z" />
	<path id="Layer" class="shp18" d="M373 223L373 224L376 224L373 223Z" />
	<path id="Layer" class="shp5" d="M326 224L323 255L324 255L326 224Z" />
	<path id="Layer" class="shp26" d="M435 224L432 236L434 236L437 224L435 224Z" />
	<path id="Layer" class="shp18" d="M350 226L350 230L351 230L350 226Z" />
	<path id="Layer" class="shp5" d="M111 228C108.63 235.49 105.37 259.63 112 265L112 250L111 228Z" />
	<path id="Layer" class="shp22" d="M362 230L362 234L363 234L362 230Z" />
	<path id="Layer" class="shp1" d="M106 232L105 241L106 241L106 232Z" />
	<path id="Layer" class="shp17" d="M357.33 232.67L357.67 233.33L357.33 232.67Z" />
	<path id="Layer" class="shp18" d="M384.67 232.33L385.33 232.67L384.67 232.33Z" />
	<path id="Layer" class="shp24" d="M386 233L389 235L386 233Z" />
	<path id="Layer" class="shp12" d="M321 234L320 253L321 253L321 234Z" />
	<path id="Layer" class="shp19" d="M362 234L359 235L359 236L362 234Z" />
	<path id="Layer" class="shp20" d="M381 236L384 235L381 236Z" />
	<path id="Layer" class="shp26" d="M363 235L360 236L360 237L363 235Z" />
	<path id="Layer" class="shp0" d="M382 235L381 240L385 240L384 235L382 235Z" />
	<path id="Layer" class="shp24" d="M384 236L385 240L386 240L384 236Z" />
	<path id="Layer" class="shp17" d="M390 236L390 239L391 239L390 236Z" />
	<path id="Layer" class="shp21" d="M357 238L357 239L365 240L357 238Z" />
	<path id="Layer" class="shp25" d="M483 240L483 246L484 246L483 240Z" />
	<path id="Layer" class="shp17" d="M105 241L105 249L106 249L105 241Z" />
	<path id="Layer" class="shp18" d="M108 241L108 248L109 248L108 241Z" />
	<path id="Layer" class="shp22" d="M376 242L376 243L380 243L376 242Z" />
	<path id="Layer" class="shp4" d="M480 242L480 246L481 246L480 242Z" />
	<path id="Layer" class="shp24" d="M378 243L378 244L387 244L378 243Z" />
	<path id="Layer" class="shp17" d="M436 245L436 246L444 246L436 245Z" />
	<path id="Layer" class="shp14" d="M451 245L451 246L456 246L451 245Z" />
	<path id="Layer" class="shp2" d="M432 257C438.19 258.96 448.01 265.48 453.89 265.62C459.97 265.77 460.94 254.09 460 250L464 250L464 247C451.31 246.74 434.18 240.22 432 257Z" />
	<path id="Layer" class="shp19" d="M432 250L435 247L432 250Z" />
	<path id="Layer" class="shp20" d="M437 248L437 249L446 249L437 248Z" />
	<path id="Layer" class="shp3" d="M464 248L460 252C462.43 251.24 465.06 250.82 464 248Z" />
	<path id="Layer" class="shp0" d="M436 249C436.34 255.22 439.21 256.25 445 257L446 249L436 249Z" />
	<path id="Layer" class="shp25" d="M432 250L431 256L432 256L432 250Z" />
	<path id="Layer" class="shp12" d="M435 250L437 255L435 250Z" />
	<path id="Layer" class="shp25" d="M106 255L106 260L107 260L106 255Z" />
	<path id="Layer" class="shp23" d="M478 255L476 268L477 268L478 255Z" />
	<path id="Layer" class="shp1" d="M459 257L457 266C459.79 263.74 460.28 260.29 459 257Z" />
	<path id="Layer" class="shp25" d="M448 259L448 260L452 260L448 259Z" />
	<path id="Layer" class="shp1" d="M455 259L450 260L456 263L455 259Z" />
	<path id="Layer" class="shp3" d="M316 260L316 265L317 265L316 260Z" />
	<path id="Layer" class="shp18" d="M443.67 260.33L444.33 260.67L443.67 260.33ZM446.67 262.33L447.33 262.67L446.67 262.33Z" />
	<path id="Layer" class="shp12" d="M420 263L420 264L422 267L423 267L423 263L420 263Z" />
	<path id="Layer" class="shp10" d="M420 264C418.59 269.93 418.7 276.46 421.56 282C423.4 285.54 428.13 289.98 428.19 294.17C428.26 299.47 420.28 303.24 419 309L411 307L411 308C418.64 314.82 430.6 304.78 431.37 294.96C431.84 289.06 425.25 282.84 422.92 277.71C421.11 273.73 422 268.29 422 264L420 264Z" />
	<path id="Layer" class="shp26" d="M473 264L473 269L474 269L473 264Z" />
	<path id="Layer" class="shp21" d="M111 265L115 278L116 278L111 265Z" />
	<path id="Layer" class="shp1" d="M453 266L453 267L457 267L453 266Z" />
	<path id="Layer" class="shp30" d="M422 267L422 275L423 275L422 267Z" />
	<path id="Layer" class="shp1" d="M313 268L313 272L314 272L313 268Z" />
	<path id="Layer" class="shp3" d="M418 268L418 275L419 275L418 268Z" />
	<path id="Layer" class="shp12" d="M110 269L111 276L112 276L110 269Z" />
	<path id="Layer" class="shp23" d="M474 269L475 286L476 286L474 269Z" />
	<path id="Layer" class="shp19" d="M479 273L479 277L486 277L486 276L479 273Z" />
	<path id="Layer" class="shp15" d="M488 273L488 274L512 274L488 273Z" />
	<path id="Layer" class="shp26" d="M488 274L488 275L512 275L488 274Z" />
	<path id="Layer" class="shp14" d="M311 275L311 284L312 284L311 275Z" />
	<path id="Layer" class="shp9" d="M419 275L419 279L420 279L419 275Z" />
	<path id="Layer" class="shp25" d="M422 275L422 279L423 279L422 275Z" />
	<path id="Layer" class="shp27" d="M423 275L423 279L424 279L423 275Z" />
	<path id="Layer" class="shp1" d="M488 279L512 278C507.23 276 491.53 274.96 488 279Z" />
	<path id="Layer" class="shp3" d="M116 278L116 284L117 284L116 278Z" />
	<path id="Layer" class="shp22" d="M483 279L483 280L488 280L483 279Z" />
	<path id="Layer" class="shp7" d="M310 284L311 292L312 292L310 284Z" />
	<path id="Layer" class="shp22" d="M374 294L375 294C375.26 285.87 379.78 285.01 387 285L387 287L377 287L378 297L379 297L378 288L388 288L388 284C379.04 284 374.04 283.74 374 294Z" />
	<path id="Layer" class="shp23" d="M480 284L480 288L481 288L480 284Z" />
	<path id="Layer" class="shp28" d="M386 302C381.87 295.89 377.19 295.66 377 287L387 287L387 285C383.89 285 379.03 284.18 376.6 286.6C369.42 293.78 379.08 301.92 386 302Z" />
	<path id="Layer" class="shp24" d="M423 285L425 290L426 290L423 285Z" />
	<path id="Layer" class="shp23" d="M427 285L429 288L427 285Z" />
	<path id="Layer" class="shp22" d="M474 286L474 291L475 291L474 286Z" />
	<path id="Layer" class="shp18" d="M110 288L110 301L111 301L110 288Z" />
	<path id="Layer" class="shp4" d="M113 289L113 301L114 301L115 289L113 289Z" />
	<path id="Layer" class="shp25" d="M428 295L424 301L428 295Z" />
	<path id="Layer" class="shp22" d="M393 299L393 300L398 300L393 299Z" />
	<path id="Layer" class="shp27" d="M425 305L431 299L425 305Z" />
	<path id="Layer" class="shp12" d="M386 300L383 302L383 303C385.35 302.71 386.95 302.51 386 300Z" />
	<path id="Layer" class="shp28" d="M393 300L393 302L402 303L393 300Z" />
	<path id="Layer" class="shp13" d="M111 301L113 314L114 314L111 301Z" />
	<path id="Layer" class="shp12" d="M393 302L393 303L398 303L393 302Z" />
	<path id="Layer" class="shp19" d="M473 302L469 308L473 302Z" />
	<path id="Layer" class="shp23" d="M314 304L314 307L315 307L314 304Z" />
	<path id="Layer" class="shp3" d="M409.33 306.67L409.67 307.33L409.33 306.67Z" />
	<path id="Layer" class="shp21" d="M410 306L413 310L411 308L411 307L414 307L410 306Z" />
	<path id="Layer" class="shp18" d="M316 310L316 317L317 317L316 310Z" />
	<path id="Layer" class="shp13" d="M321.33 310.67L321.67 311.33L321.33 310.67Z" />
	<path id="Layer" class="shp3" d="M467 310L467 313L468 313L467 310Z" />
	<path id="Layer" class="shp4" d="M320 315L320 320L321 320L320 315Z" />
	<path id="Layer" class="shp14" d="M317 317L319 325L320 325L317 317Z" />
	<path id="Layer" class="shp0" d="M321 318C321.86 324.22 325.64 326.74 328.28 332.04C335.39 346.25 341.73 361.41 360 363L360 362L321 318Z" />
	<path id="Layer" class="shp21" d="M360 319L360 321L372 324L362 320L362 319L365 319L360 319Z" />
	<path id="Layer" class="shp28" d="M362 319L362 320L383 329.17L417 340C416.52 337.02 416.02 334.38 412.87 333.23C403.46 329.78 392.55 329.7 383 326.19C375.41 323.39 370.63 317.6 362 319Z" />
	<path id="Layer" class="shp3" d="M460 318L459 322L460 322L460 318Z" />
	<path id="Layer" class="shp26" d="M121 319L123 322L121 319Z" />
	<path id="Layer" class="shp19" d="M118 320L120 325L121 325L118 320Z" />
	<path id="Layer" class="shp12" d="M123 322L123 325L124 325L123 322Z" />
	<path id="Layer" class="shp1" d="M325 322L327 325L325 322Z" />
	<path id="Layer" class="shp30" d="M454 327L459 322L454 327Z" />
	<path id="Layer" class="shp17" d="M372.67 324.33L373.33 324.67L372.67 324.33Z" />
	<path id="Layer" class="shp23" d="M320.33 325.67L320.67 326.33L320.33 325.67Z" />
	<path id="Layer" class="shp12" d="M376.67 326.33L377.33 326.67L376.67 326.33Z" />
	<path id="Layer" class="shp3" d="M382 326L382 327L386 327L382 326Z" />
	<path id="Layer" class="shp4" d="M378 327L381 329L378 327Z" />
	<path id="Layer" class="shp14" d="M453 327L450 333L451 333L453 327Z" />
	<path id="Layer" class="shp4" d="M326 328L327 332L328 332L326 328Z" />
	<path id="Layer" class="shp23" d="M335.33 328.67L335.67 329.33L335.33 328.67Z" />
	<path id="Layer" class="shp17" d="M392.67 331.33L393.33 331.67L392.67 331.33Z" />
	<path id="Layer" class="shp14" d="M402 331L402 332L408 332L402 331Z" />
	<path id="Layer" class="shp17" d="M409 332L409 333L416 334L409 332Z" />
	<path id="Layer" class="shp20" d="M325 333L327 336L325 333Z" />
	<path id="Layer" class="shp22" d="M396 333L396 334L404 335L396 333Z" />
	<path id="Layer" class="shp23" d="M128 334L130 337L128 334Z" />
	<path id="Layer" class="shp1" d="M416 334L417 340L418 340L416 334Z" />
	<path id="Layer" class="shp24" d="M403 335L403 336L408 336L403 335Z" />
	<path id="Layer" class="shp26" d="M184 337L184 341L185 341L187 338L184 337Z" />
	<path id="Layer" class="shp13" d="M414 337L417 341L417 340L414 337ZM446 337L446 340L447 340L446 337Z" />
	<path id="Layer" class="shp23" d="M183 338L183 345L184 345L183 338Z" />
	<path id="Layer" class="shp28" d="M185 338C182.67 351.15 189.39 364.56 195.29 376C197.91 381.07 202.91 384.66 201.7 391C197.79 411.36 177.5 403.76 163 405.1C154.62 405.88 146.03 408.97 138 411.38C131.03 413.47 126.62 420.78 120 422.52C114.08 424.07 104.09 419.89 98 419C99.09 424.13 105.88 422.54 110 423.83C122.01 427.61 134.18 428.97 145.92 434.22C173.15 446.4 191.4 473.3 222 478.11C227.67 479 234.92 481.98 240.78 479.67C245.14 477.95 247.68 471.25 251.03 468.08C254.44 464.86 260.03 464.26 262 460C247.49 461.01 243.96 480.02 230 477.74C189.57 471.14 165.57 429.04 125 425C144.01 401.44 184.48 408 211 408L211 406L199 405C216.48 380.83 187.07 362.63 187 338L185 338Z" />
	<path id="Layer" class="shp22" d="M187 338L187 347L188 347L187 338Z" />
	<path id="Layer" class="shp5" d="M188 339L190 355L191 355L188 339Z" />
	<path id="Layer" class="shp17" d="M437.33 341.67L437.67 342.33L437.33 341.67Z" />
	<path id="Layer" class="shp19" d="M141.67 345.33L142.33 345.67L141.67 345.33Z" />
	<path id="Layer" class="shp27" d="M184 345L184 353L185 353L184 345Z" />
	<path id="Layer" class="shp3" d="M134.67 347.33L135.33 347.67L134.67 347.33Z" />
	<path id="Layer" class="shp13" d="M140 349L140 350L143 350L140 349Z" />
	<path id="Layer" class="shp21" d="M147 349L148 355L149 355L147 349Z" />
	<path id="Layer" class="shp26" d="M127 351L127 352L133 351L127 351Z" />
	<path id="Layer" class="shp25" d="M129 353L129 354L136 353L129 353Z" />
	<path id="Layer" class="shp5" d="M427 352L427 353L431 353L427 352Z" />
	<path id="Layer" class="shp4" d="M434 352L434 354L451 354L434 352Z" />
	<path id="Layer" class="shp27" d="M452 354L452 355L460 355L452 354Z" />
	<path id="Layer" class="shp18" d="M146 355L147 359L148 359L146 355Z" />
	<path id="Layer" class="shp17" d="M343.33 355.67L343.67 356.33L343.33 355.67Z" />
	<path id="Layer" class="shp13" d="M460 355L460 358L461 358L460 355Z" />
	<path id="Layer" class="shp17" d="M426 356L426 357L451 357L426 356Z" />
	<path id="Layer" class="shp25" d="M406 357L406 358L417 358L406 357Z" />
	<path id="Layer" class="shp23" d="M192 358L193 362L194 362L192 358Z" />
	<path id="Layer" class="shp18" d="M107 360L107 361L113 360L107 360Z" />
	<path id="Layer" class="shp5" d="M388 359L388 360L401 360L388 359Z" />
	<path id="Layer" class="shp8" d="M387 360L387 361L400 361L387 360Z" />
	<path id="Layer" class="shp9" d="M402 361L402 362L417 361L402 361Z" />
	<path id="Layer" class="shp23" d="M104.67 361.33L105.33 361.67L104.67 361.33Z" />
	<path id="Layer" class="shp17" d="M149 361L149 367L150 367L149 361Z" />
	<path id="Layer" class="shp3" d="M343 361L343 362L346 362L343 361Z" />
	<path id="Layer" class="shp17" d="M350 361L350 362L353 362L350 361Z" />
	<path id="Layer" class="shp19" d="M382 361L382 362L387 362L382 361Z" />
	<path id="Layer" class="shp27" d="M104 365L104 366L113 363L104 365Z" />
	<path id="Layer" class="shp4" d="M353 362L353 363L356 363L353 362Z" />
	<path id="Layer" class="shp1" d="M357 363L357 364L362 362L357 363Z" />
	<path id="Layer" class="shp4" d="M376 363L376 364L382 363L376 363Z" />
	<path id="Layer" class="shp12" d="M362 363L358 364L358 365L362 363Z" />
	<path id="Layer" class="shp22" d="M368 363L368 364L371 364L368 363Z" />
	<path id="Layer" class="shp25" d="M371 364L371 365L376 365L371 364Z" />
	<path id="Layer" class="shp26" d="M359 367L359 368L367 368L359 367Z" />
	<path id="Layer" class="shp19" d="M367 367L367 368L381 369L367 367Z" />
	<path id="Layer" class="shp8" d="M376 374L381 369L376 374Z" />
	<path id="Layer" class="shp1" d="M164 372L167 374L164 372Z" />
	<path id="Layer" class="shp9" d="M200.33 372.67L200.67 373.33L200.33 372.67Z" />
	<path id="Layer" class="shp4" d="M88 374L88 375L92 374L88 374Z" />
	<path id="Layer" class="shp9" d="M158.67 373.33L159.33 373.67L158.67 373.33Z" />
	<path id="Layer" class="shp5" d="M379 374L375 379L379 374Z" />
	<path id="Layer" class="shp8" d="M78 379L82 376L78 379Z" />
	<path id="Layer" class="shp25" d="M71 382L74 380L71 382Z" />
	<path id="Layer" class="shp5" d="M172 380L172 381L178 381L172 380Z" />
	<path id="Layer" class="shp13" d="M205 380L205 388L206 388L205 380Z" />
	<path id="Layer" class="shp19" d="M367.33 380.67L367.67 381.33L367.33 380.67Z" />
	<path id="Layer" class="shp18" d="M178 381L181 383L178 381Z" />
	<path id="Layer" class="shp4" d="M368 382L368 383L372 383L368 382Z" />
	<path id="Layer" class="shp21" d="M58 389L58 390L70 383L58 389Z" />
	<path id="Layer" class="shp20" d="M182.67 383.33L183.33 383.67L182.67 383.33Z" />
	<path id="Layer" class="shp26" d="M184 384L184 385L189 385L184 384Z" />
	<path id="Layer" class="shp9" d="M193 385L193 386L197 386L193 385Z" />
	<path id="Layer" class="shp4" d="M198 385L198 388L199 388L198 385Z" />
	<path id="Layer" class="shp3" d="M184 387L184 388L188 388L184 387Z" />
	<path id="Layer" class="shp23" d="M188 388L188 389L194 389L188 388Z" />
	<path id="Layer" class="shp12" d="M195 389L195 390L198 390L195 389Z" />
	<path id="Layer" class="shp18" d="M62.67 390.33L63.33 390.67L62.67 390.33Z" />
	<path id="Layer" class="shp24" d="M201 390L201 394L202 394L201 390Z" />
	<path id="Layer" class="shp8" d="M40 400L40 401L46 397L40 400Z" />
	<path id="Layer" class="shp26" d="M184 404L184 405L198 402L184 404Z" />
	<path id="Layer" class="shp11" d="M32 407L37 403L32 407Z" />
	<path id="Layer" class="shp8" d="M199 403L211 406L211 405L199 403Z" />
	<path id="Layer" class="shp9" d="M160 404L160 405L172 405L160 404Z" />
	<path id="Layer" class="shp5" d="M28 412L28 413L40 405L28 412Z" />
	<path id="Layer" class="shp17" d="M155 406L155 407L160 406L155 406Z" />
	<path id="Layer" class="shp13" d="M172 405L172 406L184 406L172 405Z" />
	<path id="Layer" class="shp18" d="M211.33 406.67L211.67 407.33L211.33 406.67Z" />
	<path id="Layer" class="shp22" d="M160 407L160 408L172 408L160 407Z" />
	<path id="Layer" class="shp20" d="M188 408L188 409L211 409L188 408Z" />
	<path id="Layer" class="shp9" d="M140.67 410.33L141.33 410.67L140.67 410.33Z" />
	<path id="Layer" class="shp23" d="M139 414L139 415L145 414L139 414Z" />
	<path id="Layer" class="shp17" d="M15 415L15 416L22 416L15 415Z" />
	<path id="Layer" class="shp19" d="M97 419L97 423L102 423L102 422L97 419ZM104 420L104 421L110 421L104 420Z" />
	<path id="Layer" class="shp24" d="M125 425L129 425L129 424L128 422L125 425Z" />
	<path id="Layer" class="shp22" d="M102 423L102 424L110 424L102 423Z" />
	<path id="Layer" class="shp18" d="M118 423L118 424L121 424L118 423Z" />
	<path id="Layer" class="shp17" d="M2 424L1 427L2 424Z" />
	<path id="Layer" class="shp25" d="M122 427L122 428L130 429L122 427Z" />
	<path id="Layer" class="shp1" d="M139 428L139 429L143 429L139 428Z" />
	<path id="Layer" class="shp14" d="M130 429L130 430L134 430L130 429Z" />
	<path id="Layer" class="shp18" d="M144 430L144 431L147 431L144 430Z" />
	<path id="Layer" class="shp4" d="M337 434L337 435L351 433L337 434Z" />
	<path id="Layer" class="shp13" d="M150.67 433.33L151.33 433.67L150.67 433.33Z" />
	<path id="Layer" class="shp28" d="M264 458L264 459L322 441L328 445L323 441L323 440C330.02 439.98 344 433.18 349.66 435.87C356.65 439.2 350.87 448.78 347 451.84C336.39 460.24 320.64 464.25 308 469C307.61 472.21 305.83 475.77 306.49 479C309.42 493.38 328.13 492 339 492C349.51 492 360.65 494.85 371 493.9C385.41 492.57 399.2 486.75 414 487.03C421.16 487.17 420.19 494.06 426 496C425.62 494.56 422.09 486.62 426.83 488.35C434.01 490.96 424.5 498.2 422.17 499.93C412.54 507.09 401.39 508.05 390 511L390 512C403.39 512 414.88 509.12 426 501.38C430.94 497.94 435.95 487.8 426.91 485.32C409.13 480.44 386.71 489.01 369 490.7C355.91 491.95 332.54 492.94 320.09 488.44C315.21 486.68 312.51 481.4 308 479C314.47 459.07 344.29 468.21 352.89 449.91C353.76 448.07 354.34 446 354.67 444C357.36 427.91 341.18 434.71 332 436.25C308.83 440.11 286.05 449.64 264 458Z" />
	<path id="Layer" class="shp17" d="M145 434L145 435L148 435L145 434Z" />
	<path id="Layer" class="shp1" d="M1 435L1 448L2 448L1 435Z" />
	<path id="Layer" class="shp19" d="M154 435L157 437L154 435Z" />
	<path id="Layer" class="shp4" d="M344 435L344 436L351 436L344 435Z" />
	<path id="Layer" class="shp5" d="M510 436L510 445L511 445L510 436Z" />
	<path id="Layer" class="shp28" d="M511 436L508.09 456L507.18 484L499 512L502 512L509.37 486L510.09 458L511 436Z" />
	<path id="Layer" class="shp13" d="M157 437L160 439L157 437Z" />
	<path id="Layer" class="shp23" d="M346 437L346 438L350 438L346 437Z" />
	<path id="Layer" class="shp9" d="M352 437L350 450L351 450L352 437Z" />
	<path id="Layer" class="shp22" d="M355 437L355 444L356 444L355 437Z" />
	<path id="Layer" class="shp10" d="M341 439L341 441L350 438L341 439Z" />
	<path id="Layer" class="shp12" d="M316.67 439.33L317.33 439.67L316.67 439.33Z" />
	<path id="Layer" class="shp13" d="M340 439C340.8 442.72 343.64 442 347 442L347 441L340 439Z" />
	<path id="Layer" class="shp14" d="M323 440L323 441L328 443L328 440L323 440Z" />
	<path id="Layer" class="shp25" d="M310 441L310 442L314 442L310 441Z" />
	<path id="Layer" class="shp17" d="M160.67 443.33L161.33 443.67L160.67 443.33ZM314.67 443.33L315.33 443.67L314.67 443.33Z" />
	<path id="Layer" class="shp18" d="M325 445L325 446L328 446L325 445Z" />
	<path id="Layer" class="shp17" d="M354 445L354 448L355 448L354 445Z" />
	<path id="Layer" class="shp14" d="M509 445L509 449L510 449L509 445Z" />
	<path id="Layer" class="shp17" d="M294.67 446.33L295.33 446.67L294.67 446.33Z" />
	<path id="Layer" class="shp13" d="M292.67 447.33L293.33 447.67L292.67 447.33Z" />
	<path id="Layer" class="shp17" d="M353.33 448.67L353.67 449.33L353.33 448.67Z" />
	<path id="Layer" class="shp9" d="M174 449L177 451L174 449Z" />
	<path id="Layer" class="shp3" d="M282 450L282 451L285 451L282 450Z" />
	<path id="Layer" class="shp4" d="M508 450L508 453L509 453L508 450Z" />
	<path id="Layer" class="shp18" d="M278 451L278 452L282 452L278 451Z" />
	<path id="Layer" class="shp29" d="M511 451L511 483L512 483L511 451Z" />
	<path id="Layer" class="shp23" d="M273 453L273 454L278 453L273 453Z" />
	<path id="Layer" class="shp4" d="M174.67 453.33L175.33 453.67L174.67 453.33Z" />
	<path id="Layer" class="shp17" d="M3 454L3 457L4 457L3 454Z" />
	<path id="Layer" class="shp5" d="M507 454L507 483L508 483L507 454Z" />
	<path id="Layer" class="shp21" d="M510 454L510 483L511 483L510 454Z" />
	<path id="Layer" class="shp9" d="M0.33 455.67L0.67 456.33L0.33 455.67Z" />
	<path id="Layer" class="shp21" d="M259 459L259 460L263 462L267 460L267 459L264 459L264 458L269 457L259 459Z" />
	<path id="Layer" class="shp22" d="M340.67 456.33L341.33 456.67L340.67 456.33Z" />
	<path id="Layer" class="shp14" d="M344 457L344 458L348 457L344 457Z" />
	<path id="Layer" class="shp0" d="M0 457L0 491L1 491L14 470L0 457Z" />
	<path id="Layer" class="shp4" d="M1 457L2 461L3 461L1 457Z" />
	<path id="Layer" class="shp17" d="M184.67 457.33L185.33 457.67L184.67 457.33Z" />
	<path id="Layer" class="shp18" d="M338.67 457.33L339.33 457.67L338.67 457.33Z" />
	<path id="Layer" class="shp26" d="M184 460L187 462L184 460Z" />
	<path id="Layer" class="shp3" d="M254 463L257 462L254 463Z" />
	<path id="Layer" class="shp23" d="M325 461L325 462L328 462L325 461Z" />
	<path id="Layer" class="shp13" d="M320.67 463.33L321.33 463.67L320.67 463.33Z" />
	<path id="Layer" class="shp14" d="M196 464L202 468L202 467L196 464Z" />
	<path id="Layer" class="shp7" d="M248 472L258 465C253.3 463.92 249.86 468.09 248 472Z" />
	<path id="Layer" class="shp18" d="M317.67 464.33L318.33 464.67L317.67 464.33Z" />
	<path id="Layer" class="shp4" d="M312.67 466.33L313.33 466.67L312.67 466.33Z" />
	<path id="Layer" class="shp23" d="M245 468L245 471L246 471L245 468Z" />
	<path id="Layer" fill-rule="evenodd" class="shp22" d="M307 470L306 475L307 475L307 470ZM14 471L12 476L14 471Z" />
	<path id="Layer" class="shp18" d="M310 471L310 474L311 474L312 471L310 471Z" />
	<path id="Layer" class="shp0" d="M17 475L13 478L1.98 496L0 512C16.51 512 34.97 514.25 45 498C30.63 494.28 28.91 480.6 17 475Z" />
	<path id="Layer" class="shp9" d="M219 475L219 476L226 476L219 475Z" />
	<path id="Layer" class="shp4" d="M240.33 475.67L240.67 476.33L240.33 475.67Z" />
	<path id="Layer" class="shp12" d="M305 475L305 480L306 480L305 475Z" />
	<path id="Layer" class="shp17" d="M308 476L308 479L309 479L308 476Z" />
	<path id="Layer" class="shp4" d="M227 477L227 478L240 478L227 477Z" />
	<path id="Layer" class="shp18" d="M9.33 478.67L9.67 479.33L9.33 478.67Z" />
	<path id="Layer" class="shp17" d="M218 478L218 479L225 479L218 478Z" />
	<path id="Layer" class="shp30" d="M12 480L8 488L9 488L12 480Z" />
	<path id="Layer" class="shp20" d="M232 480L232 481L241 481L232 480Z" />
	<path id="Layer" class="shp18" d="M6 482L6 485L7 485L6 482Z" />
	<path id="Layer" class="shp9" d="M506 483L506 488L507 488L506 483Z" />
	<path id="Layer" class="shp0" d="M510 483L505 506L502 506L502 512L512 512L512 483L510 483Z" />
	<path id="Layer" class="shp18" d="M406 484L406 485L416 485L406 484Z" />
	<path id="Layer" class="shp11" d="M416 484L416 485L427 485L416 484Z" />
	<path id="Layer" class="shp20" d="M395 487L406 486C402.61 484.58 397.55 484.08 395 487Z" />
	<path id="Layer" class="shp25" d="M509 485L509 489L510 489L509 485ZM430 486L432 489L430 486Z" />
	<path id="Layer" class="shp9" d="M384 487L384 488L392 488L384 487Z" />
	<path id="Layer" class="shp18" d="M408 487L408 488L420 488L408 487Z" />
	<path id="Layer" class="shp9" d="M424 487L424 488L428 488L424 487Z" />
	<path id="Layer" class="shp4" d="M318 488L318 489L323 489L318 488Z" />
	<path id="Layer" class="shp9" d="M396 488L396 489L408 489L396 488Z" />
	<path id="Layer" class="shp14" d="M420 488L420 492L421 492L420 488Z" />
	<path id="Layer" class="shp12" d="M423 488L423 492L424 492L423 488ZM505.33 488.67L505.67 489.33L505.33 488.67Z" />
	<path id="Layer" class="shp14" d="M30 489L35 493L35 492L30 489Z" />
	<path id="Layer" class="shp25" d="M326 489L326 490L331 490L326 489Z" />
	<path id="Layer" class="shp3" d="M331 489L331 490L357 490L331 489Z" />
	<path id="Layer" class="shp4" d="M374 489L374 490L378 490L374 489Z" />
	<path id="Layer" class="shp25" d="M432 489L432 494L433 494L432 489Z" />
	<path id="Layer" class="shp18" d="M384 490L384 491L392 491L384 490Z" />
	<path id="Layer" class="shp24" d="M317 491L317 492L331 493L317 491ZM507 491L507 495L508 495L507 491Z" />
	<path id="Layer" class="shp3" d="M3 492L3 494L5 492L3 492Z" />
	<path id="Layer" class="shp23" d="M40 492L43 494L40 492Z" />
	<path id="Layer" class="shp20" d="M331 492L331 493L356 493L331 492Z" />
	<path id="Layer" class="shp8" d="M36 493L39 495L36 493Z" />
	<path id="Layer" class="shp29" d="M331 493L331 494L363 494L331 493Z" />
	<path id="Layer" class="shp1" d="M421 493L423 496L421 493Z" />
	<path id="Layer" class="shp20" d="M426.33 493.67L426.67 494.33L426.33 493.67Z" />
	<path id="Layer" class="shp1" d="M363 494L363 495L374 495L363 494Z" />
	<path id="Layer" class="shp3" d="M502 494L502 499L503 499L502 494Z" />
	<path id="Layer" class="shp12" d="M0 496L0 506L1 506L0 496ZM501 499L500 506L501 506L501 499Z" />
	<path id="Layer" class="shp0" d="M35 512L74 512C67.97 509.01 55.62 500.26 49 500.81C43.66 501.26 38.07 508.09 35 512Z" />
	<path id="Layer" class="shp31" d="M376 500L381 507C380.7 503.05 379.88 501.18 376 500Z" />
	<path id="Layer" class="shp9" d="M504 500L504 506L505 506L504 500Z" />
	<path id="Layer" class="shp18" d="M52 501L52 502L58 504L58 503L52 501Z" />
	<path id="Layer" class="shp17" d="M39 504L42 503L39 504Z" />
	<path id="Layer" class="shp27" d="M61 502L61 503L67 505L61 502Z" />
	<path id="Layer" class="shp6" d="M414 504L414 505L420 503L414 504Z" />
	<path id="Layer" class="shp9" d="M377 504L382 508L382 504L381 504L381 507L377 504Z" />
	<path id="Layer" class="shp24" d="M34 507L37 506L34 507Z" />
	<path id="Layer" class="shp4" d="M412.67 505.33L413.33 505.67L412.67 505.33Z" />
	<path id="Layer" class="shp27" d="M498 505L498 512L499 512L500 505L498 505Z" />
	<path id="Layer" class="shp21" d="M67 506L67 507L80 512L67 506Z" />
	<path id="Layer" class="shp23" d="M35 511L40 508L35 511Z" />
	<path id="Layer" class="shp5" d="M406 510L406 511L415 509L406 510Z" />
	<path id="Layer" class="shp18" d="M67.67 509.33L68.33 509.67L67.67 509.33ZM30 510L30 512L32 510L30 510Z" />
	<path id="Layer" class="shp24" d="M69 510L69 511L73 511L69 510Z" />
	<path id="Layer" class="shp23" d="M401 511L401 512L406 512L401 511Z" />
</svg>